# xmcd
#
# Track frame offsets: 
#        150
#        11943
#        25340
#        38516
#        51421
#        63100
#        75461
#        88397
#        100053
#        113583
#        125742
#
# Disc length: 1897 seconds
#
# Revision: 0
# Processed by: cddbd v1.5.2PL0 Copyright (c) Steve Scherf et al.
# Submitted via: ExactAudioCopyFreeDBPlugin 1.0
#
DISCID=8907670b
DTITLE=Sam and Dave - Eleven Best
DYEAR=2006
DGENRE=Soul
TTITLE0=Hold on I'm coming
TTITLE1=Gimme some lovin'
TTITLE2=Soul man
TTITLE3=I thank you
TTITLE4=Soul sister,Brown sugar
TTITLE5=The dock of the bay
TTITLE6=You got me hummin'
TTITLE7=Soothe me
TTITLE8=Wonderful world
TTITLE9=You don't know like I know
TTITLE10=Soul man
EXTD=
EXTT0=
EXTT1=
EXTT2=
EXTT3=
EXTT4=
EXTT5=
EXTT6=
EXTT7=
EXTT8=
EXTT9=
EXTT10=
PLAYORDER=
